<?xml version="1.0" standalone="no"?>
<!DOCTYPE svg PUBLIC "-//W3C//DTD SVG 20010904//EN"
 "http://www.w3.org/TR/2001/REC-SVG-20010904/DTD/svg10.dtd">
<svg version="1.0" xmlns="http://www.w3.org/2000/svg"
 width="512.000000pt" height="512.000000pt" viewBox="0 0 512.000000 512.000000"
 preserveAspectRatio="xMidYMid meet">

<g transform="translate(0.000000,512.000000) scale(0.100000,-0.100000)"
fill="#000000" stroke="none">
<path d="M2244 4665 c-166 -36 -307 -162 -373 -335 -37 -95 -67 -260 -77 -422
-4 -65 -10 -118 -14 -118 -4 0 -24 7 -43 15 -20 8 -46 15 -57 15 -68 0 -148
-199 -153 -380 l-2 -85 31 -16 31 -15 -23 -29 c-33 -41 -89 -160 -109 -230
-27 -92 -16 -243 25 -360 81 -226 237 -469 489 -758 200 -230 253 -319 286
-486 21 -102 16 -176 -17 -257 -40 -99 -91 -167 -150 -199 -47 -26 -65 -29
-185 -35 -141 -8 -175 -19 -188 -61 -8 -24 11 -42 35 -33 8 3 69 7 135 10
l120 4 -52 -19 c-68 -25 -153 -68 -175 -88 -21 -19 -24 -61 -4 -69 7 -3 40 6
72 19 105 44 293 99 318 93 19 -5 27 -18 41 -68 18 -66 38 -98 62 -98 24 0 32
44 21 120 -17 117 5 138 170 165 47 8 89 18 94 23 6 6 1 18 -14 32 -21 21 -29
22 -115 16 -51 -3 -100 -3 -108 0 -37 14 -15 71 93 242 l66 104 7 159 c8 193
13 204 95 196 28 -3 74 -17 102 -31 56 -28 72 -58 72 -135 0 -68 13 -105 81
-226 72 -127 75 -148 44 -304 -14 -72 -25 -101 -45 -124 -27 -31 -28 -31 -169
-39 -200 -11 -241 -25 -241 -84 0 -15 9 -16 88 -9 48 3 98 9 112 12 37 8 13
-12 -32 -26 -69 -22 -126 -98 -85 -114 7 -3 45 6 83 20 38 14 113 39 166 56
113 36 120 33 138 -46 19 -78 37 -109 63 -105 21 3 22 9 27 105 4 73 9 106 20
116 16 15 144 62 198 72 39 8 41 28 6 51 -22 15 -34 16 -109 5 -46 -7 -93 -10
-104 -6 -29 9 -27 48 9 175 17 58 38 165 47 238 9 72 20 132 24 132 4 0 65
-20 135 -45 216 -77 588 -165 695 -165 37 0 51 4 56 16 9 23 -14 81 -54 137
-19 27 -33 51 -31 53 3 2 20 -12 38 -31 l34 -35 105 1 c120 1 155 8 159 31 4
19 -63 79 -160 143 -40 26 -155 107 -256 178 l-183 131 -48 85 c-182 322 -327
641 -421 926 -71 214 -127 322 -211 406 -44 44 -133 89 -175 89 -36 0 -76 -46
-124 -143 -49 -98 -59 -110 -31 -39 25 62 62 135 90 177 27 40 26 53 -8 107
l-29 46 14 68 c8 38 16 97 17 132 2 57 -1 66 -23 84 -25 20 -34 20 -136 2 -28
-5 -33 -3 -43 26 -6 18 -16 70 -23 115 -9 66 -9 92 1 125 15 51 69 113 139
157 28 18 52 38 52 44 0 5 -9 27 -20 49 -30 60 -27 106 12 142 l32 30 -19 34
c-40 75 -122 125 -235 143 -80 13 -99 13 -176 -4z m144 -95 c44 -27 73 -77 70
-120 -6 -74 -132 -109 -197 -54 -60 50 -48 143 23 178 41 21 65 20 104 -4z
m-568 -844 c118 -41 156 -61 170 -86 10 -19 11 -19 30 0 15 15 34 20 69 20 64
0 80 -7 94 -39 10 -25 11 -25 14 -4 3 13 16 32 30 43 50 39 276 96 353 88 l35
-3 -1 -80 c-1 -79 -31 -197 -72 -284 -15 -32 -17 -33 -57 -27 -60 8 -223 62
-264 86 -18 12 -35 30 -38 41 -5 19 -7 19 -24 3 -11 -10 -42 -19 -73 -22 -44
-3 -57 -1 -74 16 l-20 20 -18 -25 c-15 -20 -44 -32 -149 -59 -71 -18 -156 -33
-187 -34 -53 0 -58 2 -64 24 -3 14 -1 56 5 94 24 154 75 262 124 262 12 0 65
-15 117 -34z"/>
<path d="M2300 4520 c-38 -38 -14 -100 38 -100 25 0 62 33 62 55 0 20 -45 65
-65 65 -8 0 -24 -9 -35 -20z"/>
<path d="M2667 4444 c-33 -18 -45 -59 -26 -92 18 -33 30 -38 121 -57 48 -10
93 -27 120 -45 53 -36 58 -37 58 -5 0 55 -52 116 -144 170 -65 38 -97 45 -129
29z m86 -41 c-7 -2 -19 -2 -25 0 -7 3 -2 5 12 5 14 0 19 -2 13 -5z"/>
<path d="M2665 4293 c3 -8 5 -17 5 -19 0 -2 17 -4 38 -5 20 0 69 -8 107 -19
39 -10 72 -16 73 -15 10 9 -65 36 -142 53 -72 16 -86 17 -81 5z"/>
</g>
</svg>
